<svg height="427pt" viewBox="0 -9 427.36378 427" width="427pt" xmlns="http://www.w3.org/2000/svg"><path d="m414.832031 176.222656c-7.589843-49.65625-10.429687-68.234375-18.988281-122.890625-4.261719-27.253906-28.679688-46.195312-54.425781-42.226562l-.863281.132812c-12.472657 1.949219-23.582032 8.96875-30.699219 19.394531-3.339844-7.414062-8.417969-13.910156-14.800781-18.945312-10.3125-8.3125-23.726563-11.7382812-36.761719-9.382812-13.03125 2.355468-24.402344 10.257812-31.152344 21.652343-3.144531-5.25-7.226563-9.882812-12.035156-13.671875-9.984375-8.03125-22.878907-11.507812-35.546875-9.582031l-.917969.140625c-13.960937 2.246094-26.125 10.757812-33.023437 23.097656-2.945313-4.425781-6.574219-8.355468-10.75-11.644531-9.988282-8.035156-22.890626-11.511719-35.5625-9.582031-25.789063 3.976562-43.359376 29.433594-39.167969 56.742187l5.179687 33.953125-39.777344 37.816406c-28.667968 27.269532-33.832031 71.097657-12.289062 104.285157l80.5 123.9375c.082031.125.167969.25.257812.371093 22.671876 30.914063 57.320313 48.679688 93.238282 48.675782 5.550781 0 11.09375-.421875 16.582031-1.269532l126.308594-19.472656c63.074219-9.726562 106-72.359375 95.699219-139.625-4.6875-30.59375-8.175782-53.394531-11.003907-71.90625zm-87.132812 195.714844-126.3125 19.476562c-35.597657 5.488282-71.726563-10.171874-94.34375-40.875l-80.375-123.742187c-17.347657-26.722656-13.1875-62.015625 9.902343-83.976563l31.691407-30.128906 9.15625 60.039063c.667969 4.367187 4.75 7.367187 9.117187 6.703125 4.367188-.667969 7.367188-4.746094 6.703125-9.117188l-11.457031-75.082031c-.011719-.074219-.023438-.152344-.035156-.230469l-5.792969-37.96875c-2.855469-18.597656 8.714844-35.878906 25.800781-38.511718 8.285156-1.230469 16.710938 1.070312 23.21875 6.34375 7.046875 5.625 11.683594 13.71875 12.976563 22.636718l1.308593 8.484375c.066407.542969.140626 1.085938.226563 1.628907.03125.210937.070313.421874.121094.628906l10.503906 68.136718c.675781 4.367188 4.761719 7.363282 9.128906 6.6875 4.367188-.671874 7.359375-4.757812 6.6875-9.125l-10.8125-70.128906c-2.117187-18.082031 9.296875-34.589844 25.964844-37.160156l.917969-.140625c8.285156-1.230469 16.707031 1.070313 23.21875 6.339844 7.042968 5.625 11.683594 13.71875 12.976562 22.640625l2.039063 13.238281c.011719.054687.019531.113281.027343.171875l.011719.066406 7.519531 48.789063c.679688 4.363281 4.761719 7.351562 9.125 6.679687 4.363282-.675781 7.359376-4.753906 6.6875-9.121094l-7.550781-48.988281c-2.792969-18.5625 8.757813-35.773437 25.894531-38.414062 8.285157-1.230469 16.707032 1.070312 23.21875 6.34375 7.042969 5.621093 11.683594 13.714843 12.976563 22.636719l7.105469 46.089843c.671875 4.367188 4.757812 7.359375 9.125 6.6875 4.367187-.671875 7.363281-4.757812 6.6875-9.125l-3.839844-24.90625-.007812-.054687c-1.457032-8.898438.53125-18.015625 5.554687-25.5 4.621094-6.988282 11.957031-11.71875 20.230469-13.039063l.863281-.136719c17.046875-2.632812 33.273437 10.332032 36.179687 28.886719 8.550782 54.628907 11.390626 73.199219 18.976563 122.835938 2.832031 18.511719 6.316406 41.316406 11 71.910156 8.972656 58.554687-27.957031 113.007813-82.316406 121.390625zm0 0"/></svg>