<svg height="434pt" viewBox="-69 0 434 434" width="434pt" xmlns="http://www.w3.org/2000/svg"><path d="m260.164062 164h-.625c-8.386718.070312-16.46875 3.15625-22.769531 8.691406-5.375-13.960937-18.375-23.757812-33.554687-23.757812-4.222656.007812-8.40625.789062-12.347656 2.300781l12.167968-111.949219c.03125-.285156.046875-.71875.046875-1.007812 0-21.027344-16.207031-38.277344-36.128906-38.277344h-.65625c-19.777344 0-35.902344 17.015625-36.128906 37.828125l-12.550781 117.691406-11.441407-94.945312c-.257812-20.792969-16.363281-37.605469-36.132812-37.605469-19.90625 0-36.113281 17.097656-36.128907 38.113281 0 .28125.015626.558594.042969.839844l12.40625 119.226563-32.96875 34.5625c-12.542969 13.003906-16.683593 31.972656-10.691406 49.019531l42.21875 121.222656c.125.414063.277344.820313.457031 1.214844 14.988282 28.792969 43.515625 46.832031 74.441406 46.832031h91.351563c46.871094 0 85.042969-40.746094 85.089844-90.640625.019531-22.078125.042969-38.621094.058593-51.992187.046876-35.945313.066407-49.578126-.027343-89.152344-.050781-20.972656-16.257813-38.214844-36.128907-38.214844zm20.15625 127.269531c-.015624 13.371094-.039062 29.996094-.058593 52.074219-.039063 41.082031-31.035157 74.65625-69.089844 74.65625h-91.351563c-24.761718 0-47.699218-14.53125-59.984374-37.71875l-42.023438-120.734375c-3.992188-11.386719-1.226562-24.050781 7.148438-32.734375l23.578124-24.742188 5.285157 50.765626c.457031 4.394531 4.390625 7.585937 8.785156 7.125 4.394531-.457032 7.585937-4.394532 7.128906-8.789063l-7.070312-67.925781c-.003907-.050782-.011719-.105469-.015625-.15625l-12.734375-122.375c.199219-12.015625 9.152343-21.726563 20.132812-21.726563 11.097657 0 20.128907 9.925781 20.128907 22.132813 0 .320312.019531.636718.058593.957031l20 166.042969c.527344 4.335937 4.429688 7.449218 8.773438 6.992187 4.34375-.453125 7.519531-4.304687 7.136719-8.652343l19.96875-187.183594c.03125-.28125.042968-.714844.042968-1 .003906-12.199219 9.035156-22.277344 20.136719-22.277344h.660156c10.976563 0 19.929688 9.863281 20.128907 21.882812l-14.089844 129.726563c-.019532.132813-.035156.308594-.046875.445313l-5.8125 53.535156c-.480469 4.390625 2.6875 8.34375 7.082031 8.824218 4.390625.480469 8.339844-2.691406 8.824219-7.082031l5.589843-51.441406c3.589844-4.332031 8.917969-6.855469 14.546876-6.886719 11.097656 0 20.019531 9.929688 20.019531 22.136719v33.332031c0 4.417969 3.582031 8 8 8s8-3.582031 8-8v-18.050781c0-12.199219 9.246093-22.421875 20.34375-22.421875h.625c11.070312 0 20.101562 10.042969 20.128906 22.214844.089844 39.546875.070313 53.132812.023437 89.054687zm0 0"/></svg>